<svg xmlns="http://www.w3.org/2000/svg" xml:space="preserve" width="1024" height="1024" viewBox="0 0 512 512">
  <path fill="#FFF" stroke="#090909" stroke-width="9" d="m401.142 85.05 5.406-7.744c.936 2.798 1.636 4.889 2.465 7.338.556 2.2.983 4.042 1.644 6.487.606 1.691.978 2.78 1.314 4.27.31 1.837.623 3.28 1.006 4.706 20.571 76.664 41.157 153.325 61.712 229.994 2.013 7.51 3.844 15.068 5.761 22.612-2.298.613-3.875 1.034-5.829 1.467-.967.27-1.535.607-2.15.771-30.031 8.04-60.067 16.065-90.102 24.089-49.94 13.341-99.886 26.66-149.82 40.028-38.89 10.413-77.76 20.907-116.673 31.237-1.137.302-2.657-.838-3.938-1.69-1.425-5.922-2.913-11.46-4.395-16.998-10.183-38.048-20.327-76.107-30.557-114.142-9.832-36.554-19.751-73.083-29.701-109.993-.622-2.471-1.175-4.574-1.807-7.017-.388-1.431-.699-2.521-1.093-3.95A110 110 0 0 0 43.029 193c-.06-.905-.118-1.809-.464-2.906-.401-1.363-.516-2.534-.836-3.99-.915-2.68-1.623-5.074-2.523-7.786.257-.944.705-1.57 1.683-1.973 15.501 8.696 30.437 17.234 45.455 25.623 16.18 9.039 32.439 17.938 48.907 27.15 5.678 3.308 11.112 6.363 16.764 9.666 5.028 2.887 9.84 5.525 14.69 8.586-2.622 17.855-5.068 35.325-8.09 52.694-.797 4.578.206 6.75 4.195 9.027 34.129 19.483 68.12 39.206 102.16 58.848 8.864 5.115 17.746 10.199 26.435 15.191.622-.58.778-.67.857-.806 25.086-43.392 50.194-86.771 75.123-130.253.75-1.31.293-4.199-.711-5.484-7.478-9.57-15.32-18.856-22.875-28.368-4.106-5.17-7.875-10.61-11.555-16.184 4.788-8.065 9.337-15.873 14.194-23.855 6.261-10.363 12.22-20.55 18.165-30.743 10.777-18.476 21.546-36.957 32.493-55.74 1.465-2.419 2.756-4.533 4.046-6.647"/>
	<path fill="#A0E" stroke="#090909" stroke-width="9" d="M312.965 178.762c6.326 7.861 12.4 15.49 18.756 23.324 4.203 5.524 7.972 10.962 12.078 16.133 7.555 9.512 15.397 18.798 22.875 28.368 1.004 1.285 1.461 4.175.711 5.484-24.93 43.482-50.037 86.861-75.123 130.253-.079.135-.235.226-.857.806-8.69-4.992-17.571-10.076-26.436-15.191-34.038-19.642-68.03-39.365-102.16-58.848-3.988-2.276-4.991-4.45-4.195-9.027 3.023-17.37 5.47-34.839 8.097-53.133 5.733-37.028 11.538-73.19 17.254-109.364 4.347-27.512 8.582-55.041 12.991-82.952.412-2.797.699-5.206.986-7.615l1.514-7.263c2.191 2.415 4.07 4.295 5.735 6.349 32.491 40.062 64.954 80.148 97.434 120.22 3.326 4.104 6.724 8.15 10.34 12.456"/>
</svg>